<svg aria-hidden="true" style="position: absolute; width: 0; height: 0; overflow: hidden;" version="1.1" xmlns="http://www.w3.org/2000/svg" xmlns:xlink="http://www.w3.org/1999/xlink">
<defs>

<symbol id="starEmpty" viewBox="0 0 32 32">
<title>star-empty</title>
<path d="M32 12.408l-11.056-1.607-4.944-10.018-4.944 10.018-11.056 1.607 8 7.798-1.889 11.011 9.889-5.199 9.889 5.199-1.889-11.011 8-7.798zM16 23.547l-6.983 3.671 1.334-7.776-5.65-5.507 7.808-1.134 3.492-7.075 3.492 7.075 7.807 1.134-5.65 5.507 1.334 7.776-6.983-3.671z"></path>
</symbol>

<symbol id="starHalf" viewBox="0 0 32 32">
<title>star-half</title>
<path d="M32 12.408l-11.056-1.607-4.944-10.018-4.944 10.018-11.056 1.607 8 7.798-1.889 11.011 9.889-5.199 9.889 5.199-1.889-11.011 8-7.798zM16 23.547l-0.029 0.015 0.029-17.837 3.492 7.075 7.807 1.134-5.65 5.507 1.334 7.776-6.983-3.671z"></path>

</symbol>
<symbol id="starFull" viewBox="0 0 32 32">
<title>star-full</title>
<path d="M32 12.408l-11.056-1.607-4.944-10.018-4.944 10.018-11.056 1.607 8 7.798-1.889 11.011 9.889-5.199 9.889 5.199-1.889-11.011 8-7.798z"></path>
</symbol>

<symbol id="telefone" viewBox="0 0 32 32">
<title>mobile</title>
<path d="M23 0h-14c-1.65 0-3 1.35-3 3v26c0 1.65 1.35 3 3 3h14c1.65 0 3-1.35 3-3v-26c0-1.65-1.35-3-3-3zM12 1.5h8v1h-8v-1zM16 30c-1.105 0-2-0.895-2-2s0.895-2 2-2 2 0.895 2 2-0.895 2-2 2zM24 24h-16v-20h16v20z"></path>
</symbol>

<symbol id="email" viewBox="0 0 32 32">
<title>mail</title>
<path d="M26.666 0h-21.332c-2.934 0-5.334 2.4-5.334 5.333v21.333c0 2.934 2.4 5.334 5.334 5.334h21.332c2.936 0 5.334-2.4 5.334-5.334v-21.333c0-2.934-2.398-5.333-5.334-5.333zM8 8h16c0.286 0 0.563 0.061 0.817 0.177l-8.817 10.286-8.817-10.287c0.254-0.116 0.531-0.177 0.817-0.177zM6 22v-12c0-0.042 0.002-0.084 0.004-0.125l5.864 6.842-5.8 5.8c-0.045-0.167-0.069-0.34-0.069-0.517zM24 24h-16c-0.177 0-0.35-0.024-0.517-0.069l5.691-5.691 2.826 3.297 2.826-3.297 5.691 5.691c-0.167 0.045-0.34 0.069-0.517 0.069zM26 22c0 0.177-0.024 0.35-0.069 0.517l-5.8-5.8 5.864-6.842c0.003 0.041 0.004 0.083 0.004 0.125v12z"></path>
</symbol>

<symbol id="email2" viewBox="0 0 32 32">
<title>mail4</title>
<path d="M16 0c-8.837 0-16 7.163-16 16s7.163 16 16 16 16-7.163 16-16-7.163-16-16-16zM8 8h16c0.286 0 0.563 0.061 0.817 0.177l-8.817 10.286-8.817-10.287c0.254-0.116 0.531-0.177 0.817-0.177zM6 22v-12c0-0.042 0.002-0.084 0.004-0.125l5.864 6.842-5.8 5.8c-0.045-0.167-0.069-0.34-0.069-0.517zM24 24h-16c-0.177 0-0.35-0.024-0.517-0.069l5.691-5.691 2.826 3.297 2.826-3.297 5.691 5.691c-0.167 0.045-0.34 0.069-0.517 0.069zM26 22c0 0.177-0.024 0.35-0.069 0.517l-5.8-5.8 5.865-6.842c0.003 0.041 0.004 0.083 0.004 0.125v12z"></path>
</symbol>

<symbol id="facebook" viewBox="0 0 32 32">
<title>facebook2</title>
<path d="M29 0h-26c-1.65 0-3 1.35-3 3v26c0 1.65 1.35 3 3 3h13v-14h-4v-4h4v-2c0-3.306 2.694-6 6-6h4v4h-4c-1.1 0-2 0.9-2 2v2h6l-1 4h-5v14h9c1.65 0 3-1.35 3-3v-26c0-1.65-1.35-3-3-3z"></path>
</symbol>

<symbol id="instagram" viewBox="0 0 32 32">
<title>instagram</title>
<path d="M16 2.881c4.275 0 4.781 0.019 6.462 0.094 1.563 0.069 2.406 0.331 2.969 0.55 0.744 0.288 1.281 0.638 1.837 1.194 0.563 0.563 0.906 1.094 1.2 1.838 0.219 0.563 0.481 1.412 0.55 2.969 0.075 1.688 0.094 2.194 0.094 6.463s-0.019 4.781-0.094 6.463c-0.069 1.563-0.331 2.406-0.55 2.969-0.288 0.744-0.637 1.281-1.194 1.837-0.563 0.563-1.094 0.906-1.837 1.2-0.563 0.219-1.413 0.481-2.969 0.55-1.688 0.075-2.194 0.094-6.463 0.094s-4.781-0.019-6.463-0.094c-1.563-0.069-2.406-0.331-2.969-0.55-0.744-0.288-1.281-0.637-1.838-1.194-0.563-0.563-0.906-1.094-1.2-1.837-0.219-0.563-0.481-1.413-0.55-2.969-0.075-1.688-0.094-2.194-0.094-6.463s0.019-4.781 0.094-6.463c0.069-1.563 0.331-2.406 0.55-2.969 0.288-0.744 0.638-1.281 1.194-1.838 0.563-0.563 1.094-0.906 1.838-1.2 0.563-0.219 1.412-0.481 2.969-0.55 1.681-0.075 2.188-0.094 6.463-0.094zM16 0c-4.344 0-4.887 0.019-6.594 0.094-1.7 0.075-2.869 0.35-3.881 0.744-1.056 0.412-1.95 0.956-2.837 1.85-0.894 0.888-1.438 1.781-1.85 2.831-0.394 1.019-0.669 2.181-0.744 3.881-0.075 1.713-0.094 2.256-0.094 6.6s0.019 4.887 0.094 6.594c0.075 1.7 0.35 2.869 0.744 3.881 0.413 1.056 0.956 1.95 1.85 2.837 0.887 0.887 1.781 1.438 2.831 1.844 1.019 0.394 2.181 0.669 3.881 0.744 1.706 0.075 2.25 0.094 6.594 0.094s4.888-0.019 6.594-0.094c1.7-0.075 2.869-0.35 3.881-0.744 1.050-0.406 1.944-0.956 2.831-1.844s1.438-1.781 1.844-2.831c0.394-1.019 0.669-2.181 0.744-3.881 0.075-1.706 0.094-2.25 0.094-6.594s-0.019-4.887-0.094-6.594c-0.075-1.7-0.35-2.869-0.744-3.881-0.394-1.063-0.938-1.956-1.831-2.844-0.887-0.887-1.781-1.438-2.831-1.844-1.019-0.394-2.181-0.669-3.881-0.744-1.712-0.081-2.256-0.1-6.6-0.1v0z"></path>
<path d="M16 7.781c-4.537 0-8.219 3.681-8.219 8.219s3.681 8.219 8.219 8.219 8.219-3.681 8.219-8.219c0-4.537-3.681-8.219-8.219-8.219zM16 21.331c-2.944 0-5.331-2.387-5.331-5.331s2.387-5.331 5.331-5.331c2.944 0 5.331 2.387 5.331 5.331s-2.387 5.331-5.331 5.331z"></path>
<path d="M26.462 7.456c0 1.060-0.859 1.919-1.919 1.919s-1.919-0.859-1.919-1.919c0-1.060 0.859-1.919 1.919-1.919s1.919 0.859 1.919 1.919z"></path>
</symbol>

<symbol id="whatsapp" viewBox="0 0 32 32">
<title>whatsapp</title>
<path d="M27.281 4.65c-2.994-3-6.975-4.65-11.219-4.65-8.738 0-15.85 7.112-15.85 15.856 0 2.794 0.731 5.525 2.119 7.925l-2.25 8.219 8.406-2.206c2.319 1.262 4.925 1.931 7.575 1.931h0.006c0 0 0 0 0 0 8.738 0 15.856-7.113 15.856-15.856 0-4.238-1.65-8.219-4.644-11.219zM16.069 29.050v0c-2.369 0-4.688-0.637-6.713-1.837l-0.481-0.288-4.987 1.306 1.331-4.863-0.313-0.5c-1.325-2.094-2.019-4.519-2.019-7.012 0-7.269 5.912-13.181 13.188-13.181 3.519 0 6.831 1.375 9.319 3.862 2.488 2.494 3.856 5.8 3.856 9.325-0.006 7.275-5.919 13.188-13.181 13.188zM23.294 19.175c-0.394-0.2-2.344-1.156-2.706-1.288s-0.625-0.2-0.894 0.2c-0.262 0.394-1.025 1.288-1.256 1.556-0.231 0.262-0.462 0.3-0.856 0.1s-1.675-0.619-3.188-1.969c-1.175-1.050-1.975-2.35-2.206-2.744s-0.025-0.613 0.175-0.806c0.181-0.175 0.394-0.463 0.594-0.694s0.262-0.394 0.394-0.662c0.131-0.262 0.069-0.494-0.031-0.694s-0.894-2.15-1.219-2.944c-0.319-0.775-0.65-0.669-0.894-0.681-0.231-0.012-0.494-0.012-0.756-0.012s-0.694 0.1-1.056 0.494c-0.363 0.394-1.387 1.356-1.387 3.306s1.419 3.831 1.619 4.1c0.2 0.262 2.794 4.269 6.769 5.981 0.944 0.406 1.681 0.65 2.256 0.837 0.95 0.3 1.813 0.256 2.494 0.156 0.762-0.113 2.344-0.956 2.675-1.881s0.331-1.719 0.231-1.881c-0.094-0.175-0.356-0.275-0.756-0.475z"></path>
</symbol>

<symbol id="twitter" viewBox="0 0 32 32">
<title>twitter</title>
<path d="M32 7.075c-1.175 0.525-2.444 0.875-3.769 1.031 1.356-0.813 2.394-2.1 2.887-3.631-1.269 0.75-2.675 1.3-4.169 1.594-1.2-1.275-2.906-2.069-4.794-2.069-3.625 0-6.563 2.938-6.563 6.563 0 0.512 0.056 1.012 0.169 1.494-5.456-0.275-10.294-2.888-13.531-6.862-0.563 0.969-0.887 2.1-0.887 3.3 0 2.275 1.156 4.287 2.919 5.463-1.075-0.031-2.087-0.331-2.975-0.819 0 0.025 0 0.056 0 0.081 0 3.181 2.263 5.838 5.269 6.437-0.55 0.15-1.131 0.231-1.731 0.231-0.425 0-0.831-0.044-1.237-0.119 0.838 2.606 3.263 4.506 6.131 4.563-2.25 1.762-5.075 2.813-8.156 2.813-0.531 0-1.050-0.031-1.569-0.094 2.913 1.869 6.362 2.95 10.069 2.95 12.075 0 18.681-10.006 18.681-18.681 0-0.287-0.006-0.569-0.019-0.85 1.281-0.919 2.394-2.075 3.275-3.394z"></path>
</symbol>

<symbol id="behance" viewBox="0 0 32 32">
<title>behance2</title>
<path d="M12.631 14.019c0.406-0.294 0.6-0.781 0.6-1.456 0-0.375-0.063-0.681-0.194-0.919-0.137-0.238-0.313-0.425-0.544-0.556-0.225-0.137-0.481-0.231-0.775-0.281-0.287-0.056-0.594-0.081-0.906-0.081h-3.294v3.737h3.563c0.625 0.006 1.144-0.144 1.55-0.444z"></path>
<path d="M13.188 17.394c-0.463-0.35-1.075-0.525-1.838-0.525h-3.831v4.406h3.756c0.35 0 0.675-0.031 0.988-0.1s0.594-0.175 0.831-0.337c0.238-0.156 0.431-0.369 0.575-0.637s0.213-0.619 0.213-1.038c0-0.825-0.231-1.413-0.694-1.769z"></path>
<path d="M29 0h-26c-1.65 0-3 1.35-3 3v26c0 1.65 1.35 3 3 3h26c1.65 0 3-1.35 3-3v-26c0-1.65-1.35-3-3-3zM20.975 8.419h6.481v1.581h-6.481v-1.581zM16.925 21.45c-0.313 0.594-0.738 1.075-1.262 1.45-0.531 0.375-1.137 0.65-1.819 0.831-0.675 0.181-1.375 0.269-2.088 0.269h-7.756v-15.994h7.537c0.762 0 1.456 0.069 2.088 0.2 0.625 0.131 1.162 0.356 1.613 0.662 0.444 0.306 0.794 0.713 1.044 1.219 0.244 0.5 0.369 1.131 0.369 1.875 0 0.806-0.181 1.475-0.55 2.012s-0.906 0.975-1.631 1.319c0.988 0.281 1.713 0.781 2.194 1.487 0.488 0.712 0.725 1.569 0.725 2.569 0.006 0.819-0.15 1.519-0.462 2.1zM29.981 18.975h-8.356c0 0.913 0.313 1.781 0.788 2.25 0.475 0.462 1.163 0.7 2.056 0.7 0.644 0 1.194-0.163 1.663-0.488 0.462-0.325 0.744-0.669 0.85-1.025h2.8c-0.45 1.394-1.131 2.387-2.063 2.988-0.919 0.6-2.044 0.9-3.35 0.9-0.913 0-1.731-0.15-2.469-0.438-0.738-0.294-1.35-0.706-1.869-1.244-0.506-0.538-0.894-1.181-1.175-1.931-0.275-0.744-0.419-1.575-0.419-2.469 0-0.869 0.144-1.675 0.425-2.425 0.288-0.75 0.688-1.4 1.212-1.938 0.525-0.544 1.15-0.975 1.875-1.294 0.725-0.313 1.525-0.469 2.413-0.469 0.981 0 1.837 0.188 2.575 0.575 0.731 0.381 1.331 0.894 1.806 1.537s0.806 1.375 1.019 2.2c0.206 0.813 0.275 1.669 0.219 2.569z"></path>
<path d="M24.269 14.494c-0.506 0-0.931 0.088-1.262 0.262s-0.6 0.387-0.806 0.637c-0.206 0.256-0.344 0.525-0.425 0.819-0.081 0.281-0.131 0.538-0.144 0.762h5.175c-0.075-0.813-0.356-1.412-0.731-1.831-0.387-0.425-1.025-0.65-1.806-0.65z"></path>
</symbol>

<symbol id="github" viewBox="0 0 32 32">
<title>github</title>
<path d="M16 0.395c-8.836 0-16 7.163-16 16 0 7.069 4.585 13.067 10.942 15.182 0.8 0.148 1.094-0.347 1.094-0.77 0-0.381-0.015-1.642-0.022-2.979-4.452 0.968-5.391-1.888-5.391-1.888-0.728-1.849-1.776-2.341-1.776-2.341-1.452-0.993 0.11-0.973 0.11-0.973 1.606 0.113 2.452 1.649 2.452 1.649 1.427 2.446 3.743 1.739 4.656 1.33 0.143-1.034 0.558-1.74 1.016-2.14-3.554-0.404-7.29-1.777-7.29-7.907 0-1.747 0.625-3.174 1.649-4.295-0.166-0.403-0.714-2.030 0.155-4.234 0 0 1.344-0.43 4.401 1.64 1.276-0.355 2.645-0.532 4.005-0.539 1.359 0.006 2.729 0.184 4.008 0.539 3.054-2.070 4.395-1.64 4.395-1.64 0.871 2.204 0.323 3.831 0.157 4.234 1.026 1.12 1.647 2.548 1.647 4.295 0 6.145-3.743 7.498-7.306 7.895 0.574 0.497 1.085 1.47 1.085 2.963 0 2.141-0.019 3.864-0.019 4.391 0 0.426 0.288 0.925 1.099 0.768 6.354-2.118 10.933-8.113 10.933-15.18 0-8.837-7.164-16-16-16z"></path>
</symbol>

<symbol id="tumblr" viewBox="0 0 32 32">
<title>tumblr2</title>
<path d="M29 0h-26c-1.65 0-3 1.35-3 3v26c0 1.65 1.35 3 3 3h26c1.65 0 3-1.35 3-3v-26c0-1.65-1.35-3-3-3zM22.869 25.769c-0.944 0.444-1.8 0.756-2.563 0.938-0.762 0.175-1.594 0.269-2.481 0.269-1.012 0-1.606-0.125-2.381-0.381s-1.438-0.619-1.988-1.087c-0.55-0.475-0.925-0.975-1.137-1.506s-0.319-1.3-0.319-2.313v-7.744h-3v-3.125c0.869-0.281 1.875-0.688 2.488-1.213 0.619-0.525 1.119-1.156 1.488-1.894 0.375-0.737 0.631-1.675 0.775-2.813h3.138v5.1h5.113v3.944h-5.106v5.662c0 1.281-0.019 2.019 0.119 2.381s0.475 0.738 0.844 0.95c0.488 0.294 1.050 0.438 1.675 0.438 1.119 0 2.231-0.363 3.337-1.087v3.481z"></path>
</symbol>

<symbol id="pin" viewBox="0 0 32 32">
<title>location</title>
<path d="M16 0c-5.523 0-10 4.477-10 10 0 10 10 22 10 22s10-12 10-22c0-5.523-4.477-10-10-10zM16 16c-3.314 0-6-2.686-6-6s2.686-6 6-6 6 2.686 6 6-2.686 6-6 6z"></path>
</symbol>

<symbol id="br" viewBox="0 0 32 32">
<title>br</title>
<path d="M27.381 16l4.494-9.463c0.181-0.388 0.156-0.844-0.075-1.206s-0.625-0.581-1.056-0.581h-29.494c-0.688 0-1.25 0.563-1.25 1.25v20c0 0.688 0.563 1.25 1.25 1.25h29.5c0.431 0 0.825-0.219 1.056-0.581s0.256-0.819 0.075-1.206l-4.5-9.463zM2.5 24.75v-17.5h26.275l-3.9 8.213c-0.163 0.338-0.163 0.731 0 1.075l3.9 8.212h-26.275z"></path>
<path d="M6.025 20.519v-9.037h3.1c1.119 0 2 0.206 2.625 0.625 0.631 0.419 0.944 1.037 0.944 1.863 0 0.431-0.1 0.813-0.306 1.15-0.2 0.338-0.512 0.588-0.938 0.756 0.531 0.119 0.919 0.362 1.175 0.725 0.25 0.363 0.381 0.781 0.381 1.25 0 0.881-0.294 1.55-0.887 2s-1.444 0.675-2.544 0.675h-3.55zM8.125 15.25h1.044c0.475-0.006 0.831-0.1 1.069-0.275s0.356-0.431 0.356-0.775c0-0.387-0.119-0.662-0.363-0.844-0.238-0.175-0.606-0.262-1.106-0.262h-1v2.156zM8.125 16.637v2.269h1.444c0.45 0 0.781-0.087 1.006-0.262s0.338-0.444 0.338-0.813c0-0.394-0.094-0.688-0.287-0.894-0.194-0.2-0.506-0.3-0.938-0.3h-1.563z"></path>
<path d="M16.294 17.056v3.462h-2.106v-9.037h3.475c1.050 0 1.875 0.244 2.488 0.725s0.919 1.144 0.919 1.988c0 0.469-0.125 0.869-0.369 1.206s-0.613 0.606-1.087 0.819c0.556 0.156 0.95 0.419 1.194 0.788s0.363 0.825 0.363 1.369v0.569c0 0.238 0.038 0.506 0.106 0.806s0.194 0.519 0.369 0.644v0.125h-2.163c-0.169-0.131-0.275-0.356-0.325-0.681s-0.075-0.631-0.075-0.906v-0.544c0-0.431-0.113-0.762-0.344-0.988-0.225-0.225-0.563-0.344-1-0.344h-1.444zM16.294 15.444h1.387c0.425 0 0.744-0.094 0.969-0.287s0.337-0.469 0.337-0.831c0-0.369-0.113-0.662-0.344-0.894-0.231-0.225-0.556-0.338-0.969-0.338h-1.375v2.35z"></path>
</symbol>

<symbol id="en" viewBox="0 0 32 32">
<title>en</title>
<path d="M27.381 16l4.494-9.463c0.181-0.388 0.156-0.844-0.075-1.206s-0.625-0.581-1.056-0.581h-29.494c-0.688 0-1.25 0.563-1.25 1.25v20c0 0.688 0.563 1.25 1.25 1.25h29.5c0.431 0 0.825-0.219 1.056-0.581s0.256-0.819 0.075-1.206l-4.5-9.463zM2.5 24.75v-17.5h26.275l-3.9 8.213c-0.163 0.338-0.163 0.731 0 1.075l3.9 8.212h-26.275z"></path>
<path d="M12.094 16.65h-3.544v2.256h4.181v1.613h-6.287v-9.037h6.294v1.613h-4.194v1.944h3.544v1.613z"></path>
<path d="M21.225 20.519h-2.094l-3.313-5.762-0.037 0.012v5.75h-2.106v-9.037h2.106l3.313 5.763 0.038-0.012v-5.75h2.094v9.038z"></path>
</symbol>

<symbol id="aftereffects" viewBox="0 0 32 32">
<title>aftereffects</title>
<path d="M16 5.3c3.6 0 7.2 0 10.7 0 0.3 0 0.3 0 0.3 0.3v16.1c0 1.6 0 3.3 0 4.9 0 0.2 0 0.2-0.2 0.2h-21.6c0 0-0.1 0-0.1 0-0.1 0-0.2 0-0.2-0.1 0 0 0-0.1 0-0.1 0-7 0-13.9 0-20.9 0-0.3 0-0.3 0.3-0.3 3.6-0.1 7.2-0.1 10.8-0.1v0zM12.3 9.6v0c-0.3 0-0.6 0-0.9 0-0.2 0-0.2 0-0.2 0.2 0 0.3 0 0.5-0.1 0.8-0.1 0.4-0.2 0.7-0.3 1.1-0.5 1.9-1.1 3.8-1.6 5.8-0.3 1-0.6 1.9-0.8 2.9-0.1 0.2-0.1 0.3 0.2 0.3 0.4 0 0.8 0 1.2 0 0.2 0 0.2 0 0.3-0.2 0.2-0.9 0.5-1.8 0.7-2.7 0-0.1 0.1-0.2 0.2-0.2 1 0 1.9 0 2.9 0 0.1 0 0.2 0.1 0.2 0.2 0.1 0.3 0.2 0.7 0.3 1 0.2 0.6 0.3 1.2 0.5 1.8 0 0.1 0.1 0.2 0.2 0.2 0.5 0 1 0 1.6 0 0.1 0 0.2-0.1 0.1-0.2 0-0.1-0.1-0.3-0.1-0.4-0.6-2.2-1.3-4.3-1.9-6.5-0.4-1.2-0.7-2.5-1.1-3.7-0.1-0.3-0.1-0.3-0.4-0.3h-1zM22.9 18.9c-0.1 0-0.1 0-0.1 0-0.6 0.2-1.2 0.3-1.8 0.3s-1.1-0.2-1.5-0.6c-0.4-0.4-0.5-0.9-0.5-1.4 0-0.2 0-0.2 0.2-0.2 0.7 0 1.5 0 2.2 0 0.6 0 1.2 0 1.7 0 0.3 0 0.3 0 0.3-0.3 0-0.1 0-0.2 0-0.2 0.1-0.8 0-1.5-0.3-2.2s-0.7-1.2-1.4-1.5c-1.2-0.5-3.1-0.4-4.1 1.4-0.8 1.5-0.8 3.1-0.2 4.7 0.3 0.9 1 1.6 2 1.9 0.5 0.2 1.1 0.2 1.7 0.2 0.5 0 1-0.1 1.5-0.3 0.2-0.1 0.2-0.2 0.2-0.3 0-0.3 0-0.7 0-1 0.1-0.4 0.1-0.4 0.1-0.5z"></path>
<path d="M13.6 15.9h-2.4c0.4-1.6 0.8-3.1 1.2-4.6 0.3 1.5 0.8 3.1 1.2 4.6z"></path>
<path d="M20.3 15.6c-0.4 0-0.8 0-1.2 0-0.2 0-0.2 0-0.2-0.2 0.1-0.4 0.2-0.7 0.4-1 0.3-0.4 0.7-0.6 1.2-0.5s0.8 0.3 1 0.7c0.1 0.2 0.2 0.5 0.2 0.7s0 0.2-0.2 0.2c-0.4 0.1-0.8 0.1-1.2 0.1v0z"></path>
</symbol>

<symbol id="apple" viewBox="0 0 32 32">
<title>apple</title>
<path d="M11 8.8c1.5 0 2.4 0.3 3.3 0.6 1.4 0.5 2.8 0.6 4.2 0 1.3-0.6 2.7-0.9 4.2-0.6 1.6 0.3 2.9 1.2 3.9 2.4 0.3 0.3 0 0.5-0.2 0.6-1.3 0.8-2.1 2-2.4 3.4-0.7 2.6 0.7 5.5 3.2 6.6 0.3 0.2 0.5 0.3 0.3 0.7-0.9 2-2.1 3.9-3.6 5.4-0.6 0.6-1.3 1.1-2.1 1.3s-1.6 0-2.3-0.3c-1.9-1-3.8-0.9-5.7 0s-3.5 0.4-5-1.4c-2.3-2.7-3.8-5.9-4.1-9.5-0.2-2.4 0.1-4.7 1.7-6.6 1.1-1.5 2.8-2.5 4.6-2.6z"></path>
<path d="M21.2 3.4c0 2.6-2 5-4.5 5.6-0.1 0-0.2 0.1-0.4 0.1-0.7 0.1-0.9-0.2-0.8-0.8 0.3-2.7 2-4.8 4.6-5.5 0 0 0.1 0 0.1 0 0.9-0.3 1-0.3 1 0.6z"></path>
</symbol>

<symbol id="autocad" viewBox="0 0 32 32">
<title>autocad</title>
<path d="M16 3.9c0.2 0 0.4 0.1 0.5 0.3 0.7 1.3 1.4 2.6 2.1 3.9 1.2 2.2 2.4 4.4 3.5 6.6l4.8 8.9c0 0 0 0.1 0 0.1 0.2 0.2 0.2 0.5 0 0.7-0.5 0.6-0.9 1.1-1.4 1.7-0.4 0.4-0.7 0.9-1.1 1.3 0 0 0 0.1-0.1 0.1-0.1 0.1-0.2 0.2-0.4 0.2-0.4 0-0.9 0.1-1.3 0.2-0.6 0.1-1.1 0.2-1.7 0.2-0.2 0-0.4 0.1-0.6 0.1-0.3 0-0.6-0.1-0.6-0.4-0.1-0.5-0.2-1-0.3-1.5-0.1-0.6-0.2-1.1-0.3-1.7 0-0.1 0-0.1-0.1-0.1-2 0-4.1 0-6.1 0 0 0-0.1 0-0.1 0.1-0.2 0.9-0.3 1.7-0.5 2.6 0 0.2-0.1 0.4-0.1 0.6-0.1 0.3-0.3 0.5-0.6 0.4-0.8-0.1-1.6-0.2-2.3-0.3-0.4-0.1-0.7-0.1-1.1-0.2-0.1 0-0.2 0-0.2 0-0.1 0-0.2-0.1-0.3-0.2-0.4-0.5-0.7-0.9-1.1-1.3-0.5-0.6-1-1.2-1.5-1.8-0.2-0.2-0.2-0.5 0-0.7 0.1-0.2 0.3-0.5 0.4-0.7 3.4-6.2 6.7-12.4 10.1-18.6 0 0 0-0.1 0.1-0.1-0.1-0.3 0.1-0.4 0.3-0.4zM25.7 23.4c-0.1 0-0.1-0.1 0 0-1.4-2.6-2.8-5.1-4.1-7.7 0-0.1-0.1-0.1-0.1 0-0.8 0.4-1.7 0.7-2.5 1.1-0.1 0.1-0.1 0.1-0.1 0.2 0 0 0 0.1 0 0.1 0.2 1 0.4 2 0.5 3 0.2 1.1 0.4 2.1 0.6 3.2 0 0.1 0 0.1 0.1 0.1 1.1 0 2.2 0 3.3 0 0.7 0 1.4 0 2.2 0h0.1zM18.9 23.4c0 0 0 0 0 0-0.1-0.6-0.2-1.1-0.3-1.6-0.3-1.5-0.5-3-0.8-4.5 0-0.1 0-0.1-0.1 0-1.3 0.5-2.5 1.1-3.8 1.6 0 0-0.1 0-0.1 0.1-0.1 0.4-0.1 0.7-0.2 1.1-0.2 1.1-0.4 2.1-0.6 3.2 0 0.1 0 0.1 0.1 0.1 2 0 3.8 0 5.8 0v0zM14.9 7.6c0 0 0 0 0 0-2.3 4.2-4.6 8.4-6.9 12.7 0 0 0.1 0 0.1 0 1.6-0.7 3.2-1.4 4.8-2.1 0 0 0.1 0 0.1-0.1 0.1-0.8 0.3-1.5 0.4-2.3l0.6-3.1c0.2-1 0.4-2 0.6-3l0.3-2.1zM14.1 17.7c0.1-0.1 0.1-0.1 0 0 1.2-0.5 2.3-1 3.4-1.5 0.1 0 0.1-0.1 0-0.1-0.1-0.6-0.2-1.2-0.3-1.9l-0.6-3c-0.2-1.1-0.4-2.2-0.6-3.3 0-0.2-0.1-0.3-0.1-0.5 0 0 0 0 0 0-0.5 3.4-1.2 6.8-1.8 10.3zM12.7 19.4c0 0 0 0 0 0-1.6 0.7-3 1.3-4.5 1.9-0.1 0-0.1 0-0.1 0.1 0.1 0.6 0.1 1.2 0.2 1.8 0 0.1 0 0.1 0.1 0.1 1.1 0 2.3 0 3.4 0 0.2 0 0.2 0 0.2-0.2 0.2-1 0.4-2 0.6-3 0-0.2 0.1-0.4 0.1-0.7zM17.1 7.6c0 0 0 0 0 0 0.1 0.8 0.3 1.6 0.4 2.4 0.3 1.9 0.7 3.7 1 5.6 0 0.1 0 0.1 0.1 0.1 0.7-0.3 1.5-0.6 2.2-0.9 0.1 0 0.1 0 0-0.1-1.1-2.4-2.4-4.7-3.7-7.1 0.1 0.1 0.1 0 0 0zM10.1 24.4c-0.5 0-1.1 0-1.6 0-0.1 0-0.1 0-0.1 0.1 0.1 0.7 0.1 1.3 0.2 2 0 0.1 0 0.1 0.1 0.1 0.9 0.1 1.7 0.2 2.6 0.4 0.1 0 0.1 0 0.1-0.1 0.1-0.8 0.3-1.6 0.4-2.4 0-0.1 0-0.1-0.1-0.1-0.5 0-1.1 0-1.6 0zM21.6 24.4c-0.4 0-0.9 0-1.3 0-0.1 0-0.1 0-0.1 0.1 0.1 0.8 0.3 1.6 0.4 2.4 0 0.1 0 0.1 0.1 0.1 0.4-0.1 0.8-0.1 1.2-0.2s0.9-0.1 1.3-0.2c0.1 0 0.1 0 0.1-0.1-0.1-0.7-0.2-1.4-0.3-2 0-0.1 0-0.1-0.1-0.1-0.5 0-0.9 0-1.3 0zM24.2 25.9c0.4-0.5 0.8-0.9 1.2-1.4 0 0 0 0 0 0-0.4 0-0.9 0-1.3 0-0.1 0 0 0 0 0.1 0 0.3 0.1 0.6 0.1 0.9 0 0 0 0.2 0 0.4zM7.1 22v0c-0.3 0.5-0.5 0.9-0.8 1.4 0 0 0 0 0 0 0.3 0 0.5 0 0.8 0 0.1 0 0.1 0 0.1-0.1s0-0.3 0-0.4 0-0.6-0.1-0.9zM6.6 24.4c0.3 0.3 0.6 0.7 0.8 1 0-0.3 0-0.6-0.1-1 0 0 0 0 0 0-0.2 0-0.5 0-0.7 0z"></path>
</symbol>

<symbol id="css3" viewBox="0 0 32 32">
<title>css3</title>
<path d="M27.1 2.4h-22.2c-0.5 0-0.9 0.4-0.9 0.9l2 22.7c0 0.5 0.5 1.1 1 1.2l8 2.2c0.5 0.1 1.4 0.1 1.9 0l8-2.2c0.5-0.1 1-0.7 1-1.2l2-22.8c0.1-0.4-0.3-0.8-0.8-0.8zM23 10.8c0 0 0 0 0 0s0 0 0 0l-6.1 2.5c-0.1 0-0.1 0.1-0.1 0.2s0.1 0.2 0.2 0.2h4.7c0.3 0 0.5 0.1 0.7 0.3s0.2 0.4 0.2 0.7l-0.7 6.9c0 0.3-0.3 0.6-0.6 0.7l-5 1.8c-0.2 0.1-0.4 0.1-0.6 0l-5-1.7c-0.3-0.1-0.6-0.4-0.6-0.7l-0.3-3.1c0-0.2 0-0.3 0.1-0.5 0.1-0.1 0.3-0.2 0.4-0.2h1.4c0.3 0 0.5 0.2 0.6 0.5l0.2 1.9 3.5 1.2 3.5-1.2 0.4-4h-9.8c-0.3 0-0.5-0.2-0.6-0.5l-0.2-1.8c0-0.3 0.1-0.5 0.4-0.6l6.3-2.6c0.1 0 0.1-0.1 0.1-0.2s-0.1-0.1-0.2-0.1h-6.6c-0.2 0-0.4-0.2-0.4-0.3l-0.2-1.9c0-0.1 0-0.2 0.1-0.3s0.2-0.1 0.3-0.1h13.9c0.1 0 0.2 0 0.3 0.1s0.1 0.2 0.1 0.3l-0.4 2.5z"></path>
</symbol>

<symbol id="html5" viewBox="0 0 32 32">
<title>html5</title>
<path d="M27.1 2.4h-22.2c-0.5 0-0.9 0.4-0.9 0.9l2 22.7c0 0.5 0.5 1.1 1 1.2l8 2.2c0.5 0.1 1.4 0.1 1.9 0l8-2.2c0.5-0.1 1-0.7 1-1.2l2-22.8c0.1-0.4-0.3-0.8-0.8-0.8zM22.4 11.1h-10.1l0.2 2.7h9.7l-0.8 8.2-5.4 1.5-5.5-1.5-0.3-4.2h2.6l0.2 2.1 3 0.8 3-0.8 0.3-3.4h-9.2l-0.7-8h13.3l-0.3 2.6z"></path>
</symbol>

<symbol id="illustrator" viewBox="0 0 32 32">
<title>illustrator</title>
<path d="M16 4.5c3.7 0 7.5 0 11.2 0 0.4 0 0.4 0 0.4 0.4 0 7.4 0 14.8 0 22.2 0 0.1 0 0.1 0 0.2 0 0.2-0.1 0.3-0.3 0.3-0.1 0-0.2 0-0.3 0-7.4 0-14.9 0-22.3 0-0.5 0-0.5 0.1-0.5-0.5 0-7.4 0-14.7 0-22.1 0-0.5 0-0.5 0.5-0.5 3.8 0 7.6 0 11.3 0zM19.1 21.3c-0.1-0.5-0.3-0.9-0.4-1.3-1-3.4-2-6.8-3-10.2-0.1-0.2-0.2-0.3-0.4-0.3-0.8 0-1.6 0-2.4 0-0.3 0-0.3 0.1-0.4 0.3-0.1 0.5-0.1 1-0.2 1.5-0.9 2.9-1.7 5.8-2.6 8.7-0.1 0.4-0.2 0.8-0.4 1.3 0.8 0 1.5 0 2.2 0 0.2 0 0.2-0.1 0.2-0.3 0.2-0.8 0.4-1.5 0.6-2.3 0.1-0.2 0.2-0.3 0.4-0.3 0.8 0 1.6 0 2.4 0 0.4 0 0.4 0 0.5 0.4 0.2 0.8 0.4 1.5 0.7 2.2 0 0.1 0 0.3 0.2 0.3 0.9 0 1.7 0 2.6 0zM23.1 16.8c0-1.4 0-2.8 0-4.2 0-0.3 0-0.3-0.3-0.3-0.6 0-1.2 0-1.8 0-0.2 0-0.3 0-0.3 0.3 0 2.9 0 5.7 0 8.6 0 0.3 0.1 0.3 0.3 0.3 0.6 0 1.2 0 1.7 0 0.4 0 0.4 0 0.4-0.4 0-1.5 0-2.9 0-4.3zM22.9 9.8c0-0.7-0.6-1.3-1.3-1.3s-1.3 0.6-1.3 1.3c0 0.7 0.6 1.3 1.3 1.3s1.3-0.6 1.3-1.3z"></path>
<path d="M14 11.8c0.1 0.2 0.1 0.5 0.2 0.7 0.3 1.2 0.6 2.4 0.8 3.5 0.1 0.3 0.1 0.3-0.3 0.3-0.6 0-1.2 0-1.8 0-0.2 0-0.3 0-0.2-0.2 0.4-1.4 0.8-2.8 1.2-4.2 0.1-0.1 0.1-0.1 0.1-0.1z"></path>
</symbol>

<symbol id="indesign" viewBox="0 0 32 32">
<title>indesign</title>
<path d="M16 27.1c-3.7 0-7.4 0-11.2 0-0.3 0-0.3 0-0.3-0.2v-21.7c0-0.2 0-0.2 0.2-0.2 7.4 0 14.8 0 22.2 0 0.4 0 0.4 0 0.4 0.4 0 7.2 0 14.3 0 21.5 0 0.1 0 0.1 0 0.2s-0.1 0.2-0.2 0.2c-0.2 0-0.4 0-0.5 0-3.5-0.2-7-0.2-10.6-0.2v0zM21.3 14.8v0c0-1.7 0-3.4 0-5.1 0-0.2 0-0.2-0.2-0.2-0.5 0-0.9 0-1.4 0-0.2 0-0.2 0-0.2 0.2 0 0.8 0 1.6 0 2.4 0 0.2 0 0.2-0.2 0.2-0.4 0-0.8 0-1.2 0-0.6 0.1-1.2 0.3-1.7 0.7-1.1 0.8-1.6 1.9-1.7 3.3 0 0.6 0 1.2 0.2 1.8 0.2 0.8 0.6 1.5 1.2 2 0.7 0.5 1.5 0.7 2.3 0.8 0.3 0 0.7 0 1 0 0.7-0.1 1.3-0.3 1.9-0.5 0.1 0 0.1-0.1 0.1-0.2 0-0.2 0-0.4 0-0.5-0.1-1.7-0.1-3.3-0.1-4.9zM10.9 15.2v0c0 1.8 0 3.7 0 5.5 0 0.1 0.1 0.2 0.2 0.2 0.4 0 0.8 0 1.2 0s0.4 0 0.4-0.4c0-2.7 0-5.3 0-8 0-0.9 0-1.8 0-2.6 0-0.3 0-0.3-0.3-0.3-0.4 0-0.9 0-1.3 0-0.2 0-0.2 0-0.2 0.2v5.4z"></path>
<path d="M19.5 16.6c0 0.8 0 1.6 0 2.4 0 0.2-0.1 0.2-0.2 0.3-1.3 0.2-2.3-0.3-2.6-1.6-0.2-0.7-0.2-1.5 0-2.2 0.3-1.2 1.4-1.8 2.5-1.6 0.2 0 0.3 0.1 0.3 0.3 0 0.8 0 1.6 0 2.4v0z"></path>
</symbol>

<symbol id="ingles" viewBox="0 0 32 32">
<title>ingles</title>
<path d="M30.2 9.9v1.3h-14.9c0 0.4 0 1.3 0 1.4h14.8v1.3h-14.8c0 0.4 0 1.3 0 1.4h14.8v1.4h-28.3v-9.6h28.4v1.3h-14.9c0 0.4 0 1.3 0 1.4h14.9zM3.1 7.9c-0.1-0.1-0.1-0.3-0.2-0.4 0 0.1-0.1 0.2-0.1 0.4h-0.4c0 0.1 0.1 0.1 0.2 0.1 0 0 0.1 0.1 0.2 0.1 0 0.1-0.1 0.3-0.1 0.4 0-0.1 0.1-0.1 0.3-0.2 0.1 0 0.1 0.1 0.2 0.1 0 0 0.1 0.1 0.2 0.1 0-0.1-0.1-0.3-0.1-0.4 0.1-0.1 0.3-0.2 0.3-0.3h-0.5zM10.2 7.9h-0.4c0-0.1-0.1-0.3-0.1-0.3 0 0.1-0.1 0.2-0.1 0.3h-0.4c0 0.1 0.1 0.1 0.1 0.1 0.1 0 0.1 0.1 0.2 0.1 0 0.1-0.1 0.2-0.1 0.4 0.1-0.1 0.2-0.2 0.3-0.2s0.1 0.1 0.2 0.1c0.1 0 0.1 0.1 0.2 0.1 0-0.1-0.1-0.3-0.1-0.4s0.1-0.1 0.2-0.2zM4.6 7.9c0.2 0.1 0.3 0.1 0.4 0.2 0 0.1-0.1 0.2-0.1 0.4 0.1-0.1 0.2-0.1 0.3-0.2 0.1 0.1 0.2 0.1 0.3 0.2 0-0.1-0.1-0.3-0.1-0.4 0.1 0 0.2-0.1 0.3-0.2 0 0 0 0 0-0.1h-0.4c0 0 0-0.2-0.1-0.3-0.1 0.1-0.1 0.3-0.1 0.4h-0.5zM7.2 8.1c0 0.1-0.1 0.2-0.1 0.4 0.1-0.1 0.2-0.2 0.3-0.2 0.1 0.1 0.2 0.1 0.3 0.2 0-0.1-0.1-0.3-0.1-0.4 0.2 0 0.2-0.1 0.3-0.2 0 0 0 0 0-0.1h-0.3c0-0.1-0.1-0.2-0.1-0.4-0.1 0.2-0.1 0.4-0.2 0.5-0.1 0-0.3 0-0.4 0 0.1 0.1 0.2 0.1 0.3 0.2zM12.1 7.9c-0.1-0.1-0.1-0.3-0.2-0.4 0 0.1-0.1 0.2-0.1 0.4h-0.4c0.1 0.1 0.1 0.1 0.2 0.1s0.1 0.1 0.2 0.1c-0.1 0.1-0.1 0.3-0.1 0.4 0.1-0.1 0.2-0.1 0.3-0.2 0.1 0.1 0.2 0.2 0.3 0.2 0-0.1-0.1-0.3-0.1-0.4 0.1-0.1 0.2-0.2 0.3-0.3h-0.4zM14.2 8.3c0 0 0.1 0.1 0.2 0.1s0.1 0.1 0.2 0.1c0-0.2-0.1-0.3-0.1-0.4 0.1 0 0.1-0.1 0.2-0.1 0 0 0.1 0 0.1-0.1h-0.4c0-0.1-0.1-0.2-0.1-0.3 0 0 0 0 0 0 0 0.1-0.1 0.2-0.1 0.3h-0.4c0 0.1 0.1 0.2 0.2 0.2 0 0.1-0.1 0.2-0.1 0.4 0 0 0 0 0 0 0.1-0.1 0.2-0.1 0.3-0.2zM13.4 11.4c0 0 0-0.1 0 0 0-0.2-0.1-0.2-0.1-0.3s0-0.1 0-0.1c0.1-0.1 0.1-0.1 0.2-0.2 0 0 0 0 0-0.1h-0.4c0-0.1-0.1-0.2-0.1-0.4 0 0.1-0.1 0.3-0.1 0.4-0.1 0-0.1 0-0.2 0s-0.1 0-0.2 0c0.1 0.1 0.2 0.2 0.3 0.2 0 0.1-0.1 0.3-0.1 0.4 0.1-0.1 0.2-0.1 0.3-0.2 0.2 0.1 0.3 0.2 0.4 0.3zM11.3 10.8c0 0 0 0 0 0h-0.4c0-0.1-0.1-0.2-0.1-0.4 0 0.1-0.1 0.3-0.1 0.4h-0.4c0.1 0.1 0.2 0.2 0.3 0.2 0 0.1 0 0.1-0.1 0.2 0 0.1-0.1 0.1 0 0.2 0.1-0.1 0.2-0.2 0.3-0.2 0.1 0.1 0.2 0.2 0.3 0.2 0-0.2-0.1-0.3-0.1-0.4 0.2-0.1 0.3-0.1 0.3-0.2zM5.8 10.8c0.1 0.1 0.2 0.1 0.3 0.2 0 0.1 0 0.1-0.1 0.2 0 0.1 0 0.1-0.1 0.2 0.1-0.1 0.2-0.2 0.3-0.2s0.2 0.2 0.3 0.2c0 0 0-0.1 0-0.1 0-0.1-0.1-0.2-0.1-0.3s0-0.1 0-0.1c0.1-0.1 0.1-0.1 0.2-0.2 0 0 0 0 0-0.1h-0.2c0-0.1-0.1-0.2-0.1-0.4 0 0.1-0.1 0.3-0.1 0.4h-0.4zM3.7 11.4c0.1-0.1 0.2-0.2 0.3-0.2 0.1 0.1 0.2 0.2 0.3 0.2 0-0.1-0.1-0.3-0.1-0.4 0 0 0.1-0.1 0.1-0.1s0.1-0.1 0.1-0.1c0 0 0 0 0 0h-0.2c0-0.1-0.1-0.2-0.1-0.4 0 0.1-0.1 0.3-0.1 0.4-0.1 0-0.1 0-0.2 0s-0.1 0-0.2 0c0.1 0.1 0.2 0.2 0.3 0.2-0.1 0.1-0.1 0.3-0.2 0.4zM9.1 10.8h-0.4c0-0.1-0.1-0.2-0.1-0.3 0 0 0 0 0 0 0 0.1-0.1 0.2-0.1 0.4-0.1 0-0.3 0-0.4 0 0.1 0.1 0.2 0.2 0.3 0.3 0 0.1 0 0.1-0.1 0.2 0 0.1-0.1 0.1 0 0.2 0.1-0.1 0.2-0.1 0.3-0.2 0.1 0.1 0.2 0.1 0.3 0.2 0-0.2-0.1-0.3-0.1-0.4 0.1-0.3 0.2-0.3 0.3-0.4zM2.6 14.3c0 0 0 0 0 0 0.1-0.1 0.2-0.1 0.3-0.2 0.1 0.1 0.2 0.1 0.3 0.2 0 0 0 0 0-0.1s-0.1-0.2-0.1-0.3c0 0 0-0.1 0-0.1 0.1 0 0.2-0.1 0.2-0.1s0 0 0.1-0.1h-0.3c0-0.1 0-0.1-0.1-0.2 0-0.1 0-0.1-0.1-0.2 0 0.1-0.1 0.2-0.1 0.4h-0.4c0.1 0.1 0.2 0.2 0.3 0.3 0 0.1-0.1 0.2-0.1 0.4zM4.7 13.6c0.1 0.1 0.2 0.2 0.3 0.3 0 0.1 0 0.1-0.1 0.2 0 0.1-0.1 0.1 0 0.2 0.1-0.1 0.2-0.2 0.3-0.3 0.1 0.1 0.2 0.1 0.3 0.2 0-0.1-0.1-0.3-0.1-0.4 0.1-0.1 0.2-0.1 0.3-0.3h-0.4c-0.1-0.1-0.1-0.2-0.1-0.4v0c0 0.1-0.1 0.3-0.1 0.4h-0.4zM6.9 13.6c0 0.1 0 0.1 0 0 0.1 0.1 0.2 0.2 0.3 0.2 0 0 0.1 0.1 0 0.1 0 0.1 0 0.1-0.1 0.2 0 0-0.1 0.1 0 0.2 0 0 0.1 0 0.1 0 0.1 0 0.1-0.1 0.2-0.2 0 0 0.1 0 0.1 0 0.1 0.1 0.2 0.1 0.2 0.2 0 0 0 0 0.1 0 0-0.1-0.1-0.3-0.1-0.4 0.1-0.1 0.2-0.1 0.3-0.2 0 0 0 0 0-0.1h-0.4c0-0.1-0.1-0.2-0.1-0.4 0 0.1-0.1 0.3-0.1 0.4h-0.5zM9.6 13.6c-0.1 0-0.1 0-0.2 0s-0.1 0-0.2 0c0.1 0.1 0.2 0.2 0.3 0.2 0 0.1-0.1 0.3-0.1 0.4 0.1-0.1 0.2-0.2 0.3-0.2s0.2 0.2 0.3 0.2c0-0.1-0.1-0.3-0.1-0.4 0.1 0 0.1-0.1 0.1-0.1 0.1 0 0.1 0 0.2-0.1h-0.4c0-0.1-0.1-0.3-0.1-0.4 0 0.2-0.1 0.3-0.1 0.4zM12.2 13.9c0.1-0.1 0.2-0.1 0.3-0.3h-0.4c0-0.1-0.1-0.2-0.1-0.4 0 0 0 0 0 0 0 0.1-0.1 0.3-0.1 0.4h-0.4c0.1 0.1 0.2 0.2 0.3 0.2 0 0.1 0 0.1-0.1 0.2 0 0.1-0.1 0.1 0 0.2 0.1-0.1 0.2-0.1 0.3-0.2 0.1 0.1 0.2 0.1 0.3 0.2 0-0.1-0.1-0.2-0.1-0.3zM13.7 13.6c0 0.1 0 0.1 0 0 0.1 0.1 0.2 0.2 0.3 0.2 0 0 0.1 0.1 0 0.1 0 0.1 0 0.1-0.1 0.2 0 0 0 0.1 0 0.1 0.1-0.1 0.2-0.2 0.3-0.2 0.1 0.1 0.2 0.1 0.3 0.2 0 0 0 0 0 0 0-0.1-0.1-0.2-0.1-0.4 0.1-0.1 0.2-0.2 0.3-0.2 0 0 0 0 0 0h-0.4c0-0.1-0.1-0.2-0.1-0.4 0 0.1-0.1 0.3-0.1 0.4h-0.4zM5.3 9.8c0-0.1 0-0.3-0.1-0.4 0 0.1-0.1 0.3-0.1 0.4h-0.5c0.2 0.1 0.3 0.2 0.4 0.3 0 0.1-0.1 0.2-0.1 0.4 0.1-0.1 0.2-0.1 0.3-0.2h0.1c0.1 0.1 0.2 0.1 0.3 0.2 0-0.1-0.1-0.3-0.1-0.4 0.1 0 0.1-0.1 0.2-0.1 0 0 0.1-0.1 0.2-0.1h-0.6zM11.6 10.4c0.1-0.1 0.2-0.1 0.2-0.2 0 0 0.1 0 0.1 0 0.1 0.1 0.2 0.1 0.3 0.2 0-0.1-0.1-0.3-0.1-0.4 0.1 0 0.1-0.1 0.2-0.1 0 0 0.1-0.1 0.2-0.1h-0.4c-0.1-0.1-0.1-0.3-0.2-0.4 0 0.1-0.1 0.3-0.1 0.4h-0.4c0.1 0.1 0.2 0.2 0.3 0.2 0 0.2-0.1 0.3-0.1 0.4zM2.9 10.2c0.1 0.1 0.2 0.1 0.3 0.2 0-0.1-0.1-0.3-0.1-0.4 0.2 0 0.3-0.1 0.4-0.2h-0.4c-0.1-0.1-0.1-0.3-0.2-0.4 0 0.1-0.1 0.3-0.1 0.4h-0.4c0.1 0.1 0.2 0.2 0.3 0.2 0 0.1-0.1 0.3-0.1 0.4 0.1 0 0.2-0.1 0.3-0.2zM7.6 9.8c0-0.1-0.1-0.2-0.1-0.4-0.1 0.1-0.1 0.3-0.2 0.4-0.1 0-0.3 0-0.4 0 0.1 0.1 0.2 0.2 0.3 0.3 0 0.1-0.1 0.2-0.1 0.4 0.1-0.1 0.2-0.2 0.3-0.2 0.1 0.1 0.2 0.1 0.2 0.2 0 0 0.1 0 0.1 0.1 0-0.1-0.1-0.3-0.1-0.4 0.1-0.2 0.3-0.3 0.4-0.4h-0.4zM9.7 10.2c0.1 0.1 0.2 0.1 0.3 0.2 0-0.1-0.1-0.3-0.1-0.4 0.1-0.1 0.2-0.1 0.3-0.3h-0.4c0-0.1-0.1-0.3-0.1-0.4 0 0.1-0.1 0.3-0.1 0.4h-0.4c0.1 0.1 0.2 0.2 0.3 0.2 0 0.1-0.1 0.2-0.1 0.4 0.1 0.1 0.2 0 0.3-0.1zM14.1 9.8c-0.1 0-0.1 0-0.2 0s-0.1 0-0.2 0c0 0 0.1 0.1 0.1 0.1s0.1 0.1 0.1 0.1c0 0 0.1 0.1 0.1 0.1 0 0.1-0.1 0.2-0.1 0.3 0 0 0 0.1 0 0.1 0.1-0.1 0.2-0.2 0.3-0.2 0.1 0.1 0.2 0.2 0.3 0.2 0-0.1-0.1-0.3-0.1-0.4 0.1-0.1 0.2-0.1 0.3-0.3h-0.4c0-0.1-0.1-0.2-0.1-0.4-0.1 0.1-0.1 0.3-0.1 0.4zM6.6 13.3c0-0.1-0.1-0.3-0.1-0.4 0.1-0.1 0.2-0.2 0.3-0.2-0.1 0-0.2 0-0.2 0-0.1 0-0.1 0-0.2 0 0-0.1-0.1-0.3-0.1-0.4 0 0.1-0.1 0.3-0.1 0.4h-0.4c0.1 0.1 0.2 0.2 0.3 0.2 0 0.1-0.1 0.2-0.1 0.4 0.1-0.1 0.2-0.2 0.3-0.2 0.1 0.1 0.2 0.1 0.3 0.2zM8.6 12.3c0 0 0 0 0 0-0.1 0.1-0.1 0.2-0.1 0.4-0.1 0-0.3 0-0.4 0 0.1 0.1 0.2 0.2 0.3 0.2 0 0.1 0 0.1-0.1 0.2 0 0.1-0.1 0.1 0 0.2 0.1-0.1 0.2-0.1 0.3-0.2 0 0 0.1 0 0.1 0 0.1 0.1 0.2 0.1 0.3 0.2 0-0.1-0.1-0.3-0.1-0.4 0.1-0.1 0.2-0.2 0.3-0.2h-0.5c0-0.1-0.1-0.3-0.1-0.4zM13.4 13.3c0 0 0 0 0 0 0-0.1-0.1-0.2-0.1-0.3s0-0.1 0-0.1c0.1-0.1 0.2-0.1 0.2-0.2 0 0 0 0 0 0h-0.4c0-0.1-0.1-0.1-0.1-0.2s0-0.1-0.1-0.2c0 0.1-0.1 0.2-0.1 0.4h-0.4c0.1 0.1 0.2 0.2 0.3 0.2 0 0.1-0.1 0.3-0.1 0.4 0.1-0.1 0.2-0.2 0.3-0.2 0.3 0.1 0.4 0.1 0.5 0.2zM11 12.7c0-0.1-0.1-0.3-0.1-0.4-0.1 0.1-0.1 0.3-0.1 0.4-0.1 0-0.1 0-0.2 0s-0.1 0-0.2 0c0.1 0.1 0.2 0.2 0.3 0.3 0 0.1 0 0.1-0.1 0.2 0 0.1-0.1 0.1-0.1 0.2 0.1-0.1 0.2-0.2 0.3-0.2 0.1 0.1 0.2 0.2 0.3 0.2-0.1-0.1-0.1-0.3-0.1-0.4 0.1-0.1 0.2-0.2 0.3-0.2h-0.3zM3.6 12.7c0.1 0.1 0.2 0.2 0.3 0.3 0 0.1-0.1 0.2-0.1 0.4 0.1-0.1 0.2-0.2 0.3-0.2 0.1 0.1 0.2 0.2 0.3 0.2-0.1-0.1-0.1-0.3-0.1-0.4 0.1-0.1 0.2-0.2 0.3-0.3h-0.4c0-0.1-0.1-0.2-0.1-0.4-0.1 0.1-0.1 0.2-0.2 0.4h-0.3zM14.7 15.6h-0.4c0-0.1-0.1-0.3-0.1-0.4 0 0.1-0.1 0.3-0.1 0.4-0.1 0-0.1 0-0.2 0s-0.1 0-0.2 0c0.1 0 0.1 0.1 0.2 0.1s0.1 0.1 0.1 0.1-0.1 0.3-0.1 0.4c0.1-0.1 0.2-0.2 0.3-0.2 0.1 0.1 0.2 0.2 0.3 0.2-0.1-0.1-0.1-0.3-0.1-0.4 0.1-0.1 0.2-0.2 0.3-0.2zM10 16.2c0 0 0 0 0 0 0-0.1-0.1-0.2-0.1-0.4 0.1-0.1 0.2-0.1 0.3-0.3h-0.4c-0.1-0.1-0.1-0.3-0.2-0.4 0 0.1-0.1 0.3-0.1 0.4h-0.3c0.1 0.1 0.2 0.2 0.3 0.2 0 0.1-0.1 0.3-0.1 0.4 0.1 0 0.2-0.1 0.3-0.1s0.2 0.1 0.3 0.2zM7.1 16.2v0c0.1-0.1 0.2-0.2 0.3-0.2 0.1 0.1 0.2 0.2 0.3 0.2 0-0.1-0.1-0.3-0.1-0.4 0.1-0.1 0.2-0.2 0.3-0.2h-0.3c0-0.1-0.1-0.2-0.1-0.4 0 0 0 0 0 0 0 0.1-0.1 0.2-0.1 0.4-0.1 0-0.1 0-0.2 0s-0.1 0-0.2 0c0.1 0.1 0.2 0.2 0.3 0.2-0.1 0.1-0.1 0.3-0.2 0.4zM3.5 15.6h-0.4c0-0.1-0.1-0.2-0.1-0.4-0.1 0.2-0.1 0.3-0.1 0.4-0.1 0-0.1 0-0.2 0s-0.1 0-0.2 0c0.1 0.1 0.2 0.2 0.3 0.2 0 0.1-0.1 0.3-0.1 0.4 0-0.1 0.1-0.2 0.2-0.2 0.1 0.1 0.2 0.2 0.3 0.2 0-0.1-0.1-0.3-0.1-0.4 0.2-0.1 0.3-0.2 0.4-0.2zM12.1 15.6c0-0.1-0.1-0.2-0.1-0.4 0 0 0 0 0 0 0 0.1-0.1 0.3-0.1 0.4-0.1 0-0.3 0-0.4 0 0.1 0.1 0.2 0.2 0.3 0.2 0 0.1-0.1 0.2-0.1 0.4 0.1-0.1 0.2-0.2 0.3-0.2 0.1 0.1 0.2 0.1 0.3 0.2 0 0 0 0 0 0 0-0.1-0.1-0.2-0.1-0.4 0.1-0.1 0.2-0.2 0.3-0.2h-0.4zM5.4 15.8c0.1-0.1 0.2-0.2 0.3-0.2h-0.4c0-0.1-0.1-0.2-0.1-0.4 0 0 0 0 0 0 0 0.1-0.1 0.3-0.1 0.4-0.1 0-0.3 0-0.4 0 0.1 0 0.1 0.1 0.2 0.1s0.1 0.1 0.1 0.1-0.1 0.2-0.1 0.4c0.1-0.1 0.2-0.2 0.3-0.3 0.1 0.1 0.2 0.1 0.3 0.2 0 0 0 0 0 0 0-0.1-0.1-0.2-0.1-0.3zM8.4 9.1c0 0.1 0 0.1-0.1 0.2 0 0.1-0.1 0.1 0 0.2 0.1-0.1 0.2-0.2 0.3-0.2 0.1 0.1 0.2 0.1 0.3 0.2 0-0.1-0.1-0.3-0.1-0.4 0.1-0.1 0.2-0.1 0.3-0.2h-0.4c0-0.1-0.1-0.2-0.1-0.4-0.1 0.1-0.1 0.2-0.2 0.4h-0.4c0.2 0 0.3 0.1 0.4 0.2zM13.1 9.3c0.1 0.1 0.2 0.2 0.3 0.2 0-0.1-0.1-0.2-0.1-0.4 0.1-0.1 0.2-0.1 0.3-0.2h-0.4c-0.1-0.1-0.1-0.3-0.2-0.4 0 0.1-0.1 0.3-0.1 0.4h-0.4c0.1 0.1 0.2 0.2 0.3 0.2 0 0.1-0.1 0.2-0.1 0.4 0.2-0.1 0.3-0.2 0.4-0.2zM11 8.9c0-0.1-0.1-0.2-0.1-0.4 0 0 0 0 0 0 0 0.1-0.1 0.2-0.1 0.4-0.1 0-0.1 0-0.2 0s-0.1 0-0.2 0c0.1 0.1 0.2 0.2 0.3 0.2 0 0.1-0.1 0.2-0.1 0.4 0 0 0 0 0 0 0.1-0.1 0.2-0.1 0.3-0.2 0.1 0.1 0.2 0.2 0.3 0.2 0-0.1-0.1-0.3-0.1-0.4 0.1 0 0.1-0.1 0.2-0.1 0 0 0.1 0 0.1-0.1h-0.4zM6.5 9.1c0.1-0.1 0.2-0.2 0.4-0.2h-0.4c0-0.1-0.1-0.3-0.1-0.4-0.1 0.1-0.2 0.2-0.2 0.4-0.1 0-0.1 0-0.2 0s-0.1 0-0.2 0c0.1 0 0.2 0.1 0.3 0.2 0 0.1-0.1 0.2-0.1 0.4 0.1-0.1 0.2-0.1 0.3-0.2 0.1 0.1 0.2 0.2 0.3 0.2 0-0.2 0-0.3-0.1-0.4zM4.6 8.9h-0.4c0-0.1-0.1-0.2-0.1-0.4-0.1 0.1-0.1 0.2-0.2 0.3-0.1 0-0.2 0-0.4 0 0.1 0.2 0.3 0.2 0.4 0.3 0 0.1-0.1 0.2-0.1 0.4 0.1-0.1 0.2-0.2 0.3-0.2 0.1 0.1 0.2 0.2 0.3 0.2 0-0.1-0.1-0.3-0.1-0.4 0.1-0.1 0.2-0.2 0.3-0.2zM9.7 12.1c0.1 0 0.2 0.2 0.3 0.2 0-0.1-0.1-0.2-0.1-0.4 0.1-0.1 0.2-0.2 0.3-0.2h-0.3c0 0 0 0 0 0 0-0.1 0-0.1-0.1-0.2 0 0 0-0.1-0.1-0.1 0 0.1-0.1 0.3-0.1 0.4h-0.4c0.1 0.1 0.2 0.2 0.3 0.2 0 0.1-0.1 0.2-0.1 0.4 0.1-0.1 0.2-0.2 0.3-0.3zM3.2 12c0.1-0.1 0.2-0.2 0.3-0.2h-0.4c-0.1-0.2-0.1-0.3-0.2-0.5 0 0.1-0.1 0.3-0.1 0.4h-0.4c0.1 0.1 0.2 0.2 0.3 0.2 0 0.1-0.1 0.2-0.1 0.4 0.1-0.1 0.2-0.2 0.3-0.2s0.2 0.2 0.3 0.2c0-0.1 0-0.2 0-0.3zM7.5 11.3c-0.1 0.1-0.1 0.1 0 0-0.1 0.1-0.1 0.2-0.1 0.3 0 0 0 0.1-0.1 0.1s-0.2 0-0.3 0c0 0.1 0.2 0.2 0.2 0.3s-0.1 0.2-0.1 0.4c0.1-0.1 0.2-0.2 0.3-0.2 0.1 0.1 0.2 0.2 0.3 0.2 0-0.1-0.1-0.3-0.1-0.4 0.1-0.1 0.2-0.1 0.3-0.2h-0.3c-0.1-0.2-0.1-0.3-0.1-0.5zM13.7 11.7c0.1 0.1 0.2 0.2 0.3 0.2 0 0.1-0.1 0.2-0.1 0.4 0 0 0 0 0 0 0.1-0.1 0.2-0.1 0.3-0.2 0.1 0.1 0.2 0.2 0.3 0.2 0-0.1 0-0.1-0.1-0.2 0-0.1-0.1-0.1 0-0.2s0.2-0.1 0.3-0.2h-0.4c0-0.1-0.1-0.2-0.1-0.4-0.1 0.2-0.1 0.3-0.1 0.4h-0.4zM8.2 15.2c0.1 0 0.1 0 0 0 0.1-0.1 0.2-0.1 0.3-0.2 0.1 0.1 0.2 0.1 0.3 0.2 0-0.1-0.1-0.3-0.1-0.4 0.1-0.1 0.2-0.1 0.3-0.2h-0.3c0-0.1-0.1-0.3-0.1-0.4-0.1 0.2-0.1 0.3-0.1 0.4h-0.5c0.1 0.1 0.2 0.2 0.3 0.2 0 0.2 0 0.3-0.1 0.4zM12.5 11.7h-0.4c0-0.1-0.1-0.2-0.1-0.3 0 0 0 0 0 0 0 0.1-0.1 0.3-0.1 0.4-0.1 0-0.3 0-0.4 0 0.1 0.1 0.2 0.2 0.3 0.2 0 0.1-0.1 0.2-0.1 0.4 0.1-0.1 0.2-0.2 0.3-0.2 0.1 0.1 0.2 0.1 0.3 0.2 0-0.1 0-0.1 0-0.2s0-0.1-0.1-0.2c0.1-0.1 0.2-0.2 0.3-0.3zM5.4 12c0.1-0.1 0.2-0.2 0.3-0.2h-0.4c0-0.1-0.1-0.3-0.1-0.4-0.1 0.2-0.1 0.3-0.1 0.4h-0.4c0.1 0 0.2 0.1 0.3 0.2 0 0.1 0 0.1-0.1 0.2 0 0.1-0.1 0.1 0 0.2 0.1-0.1 0.2-0.2 0.3-0.2 0.1 0.1 0.2 0.1 0.3 0.2 0-0.2-0.1-0.3-0.1-0.4zM10.8 15c0.1 0.1 0.2 0.2 0.3 0.2 0-0.1-0.1-0.3-0.1-0.4 0.1-0.1 0.2-0.1 0.3-0.2h-0.3c0-0.1-0.1-0.3-0.1-0.4v0c0 0.1-0.1 0.2-0.1 0.4-0.1 0-0.1 0-0.2 0s-0.1 0-0.2 0c0.1 0.1 0.2 0.1 0.3 0.2 0 0.1-0.1 0.2-0.1 0.4 0-0.1 0.1-0.1 0.2-0.2zM4.3 14.8c0.1-0.1 0.2-0.1 0.3-0.2h-0.4c0-0.1-0.1-0.3-0.1-0.4-0.1 0.2-0.1 0.3-0.2 0.4-0.1 0-0.2 0-0.4 0 0.1 0.1 0.2 0.2 0.3 0.2 0 0.1-0.1 0.2-0.1 0.4 0.2-0.1 0.3-0.1 0.4-0.2 0.1 0.1 0.2 0.2 0.3 0.2 0-0.1-0.1-0.2-0.1-0.4zM12.8 14.8c0 0.1-0.1 0.3-0.1 0.4 0.1-0.1 0.2-0.2 0.3-0.2 0.1 0.1 0.2 0.1 0.3 0.2 0 0 0 0 0 0 0-0.1-0.1-0.2-0.1-0.4 0.1 0 0.1-0.1 0.2-0.1 0 0 0.1 0 0.1-0.1h-0.4c0 0 0 0 0 0 0-0.1 0-0.1-0.1-0.2 0 0 0-0.1-0.1-0.1 0 0.1-0.1 0.2-0.1 0.4-0.1 0-0.1 0-0.2 0s-0.1 0-0.2 0c0.2 0 0.3 0.1 0.4 0.1zM6.3 15c0.1 0.1 0.2 0.1 0.3 0.2 0 0 0 0 0 0 0-0.1-0.1-0.2-0.1-0.4 0.1 0 0.1-0.1 0.2-0.1 0 0 0.1 0 0.1-0.1h-0.3c0 0 0 0 0 0 0-0.1 0-0.1-0.1-0.2 0 0 0-0.1-0.1-0.1 0 0.1-0.1 0.2-0.1 0.4-0.1 0-0.1 0-0.2 0s-0.1 0-0.2 0c0.1 0.1 0.2 0.1 0.3 0.2 0 0.1-0.1 0.2-0.1 0.3 0.1-0.1 0.2-0.1 0.3-0.2z"></path>
<path d="M1.8 23.5h28.4v1.3h-28.4v-1.3z"></path>
<path d="M1.8 20.8h28.4v1.3h-28.4v-1.3z"></path>
<path d="M1.8 18.1h28.4v1.3h-28.4v-1.3z"></path>
</symbol>

<symbol id="javascript" viewBox="0 0 32 32">
<title>javascript</title>
<path d="M27.1 2.4h-22.2c-0.5 0-0.9 0.4-0.9 0.9l2 22.7c0 0.5 0.5 1.1 1 1.2l8 2.2c0.5 0.1 1.4 0.1 1.9 0l8-2.2c0.5-0.1 1-0.7 1-1.2l2-22.8c0.1-0.4-0.3-0.8-0.8-0.8zM15.1 22.7c-0.2 0-0.3-0.1-0.5-0.1-1.8-0.5-3.6-1-5.4-1.5-0.4-0.1-0.6-0.3-0.6-0.7s0-0.9 0-1.3c0-0.7 0-0.7 0.7-0.5 1 0.3 2 0.6 3 0.8 0.6 0.2 0.7 0.2 0.7-0.5 0-3.4 0-6.8 0-10.3 0-0.7 0-0.7 0.7-0.7 0.3 0 0.7 0 1 0s0.4 0.1 0.4 0.4c0 0.2 0 0.3 0 0.5 0 4.5 0 8.9 0 13.4 0 0.1 0 0.3 0 0.5zM24 8.4c0 0.5-0.1 1.1-0.1 1.6 0 0.4-0.2 0.5-0.5 0.5-1.2 0-2.4 0-3.6 0-0.6 0-0.6 0-0.6 0.6 0 0.9 0 1.9 0 2.8 0 0.4 0.1 0.5 0.5 0.4 1.1-0.2 2.2-0.3 3.4-0.4 0.5-0.1 0.6 0 0.6 0.5-0.2 2-0.3 4.1-0.5 6.1 0 0.4-0.2 0.6-0.6 0.7-1.7 0.4-3.3 0.9-5 1.3-0.5 0.1-0.5 0.1-0.5-0.4s0-1.1 0-1.6c0-0.4 0.1-0.6 0.5-0.7 1.1-0.3 2.1-0.6 3.2-0.8 0.4-0.1 0.7-0.3 0.6-0.8 0-0.4 0-0.7 0.1-1.1 0-0.4-0.1-0.5-0.5-0.4-1.1 0.2-2.2 0.4-3.3 0.6-0.6 0.1-0.6 0.1-0.6-0.5 0-1.4 0-2.8 0-4.2s0-2.8 0-4.2c0-0.5 0-0.6 0.6-0.6 2 0 4 0 6 0 0.3 0.1 0.3 0.1 0.3 0.6z"></path>
</symbol>

<symbol id="microsoft" viewBox="0 0 32 32">
<title>microsoft</title>
<path d="M5.6 24.2c1.8 0.2 3.6 0.5 5.4 0.7 2.6 0.4 5.2 0.7 7.8 1.1 0.4 0.1 0.4-0.1 0.4-0.4 0-0.5 0-0.9 0-1.4 0-5.6 0-11.2 0-16.7 0-0.6-0.1-0.6-0.7-0.5-2.8 0.7-5.5 1.3-8.3 2-0.4 0.1-0.5 0.2-0.5 0.7 0 4 0 7.9 0 11.8 0 0.4-0.1 0.7-0.5 0.8-1.4 0.5-2.8 1.1-4.3 1.7v-0.6c0-4.9 0-9.9 0-14.8 0-0.4 0.1-0.6 0.6-0.8 4.4-1.7 8.9-3.3 13.3-5 0.3-0.1 0.5-0.1 0.8 0 2.3 0.7 4.7 1.4 7 2 0.4 0.1 0.5 0.3 0.5 0.7 0 7 0 14 0 21 0 0.4-0.1 0.5-0.5 0.6-2.3 0.7-4.6 1.3-6.9 2-0.3 0.1-0.5 0.1-0.8 0-4.4-1.6-8.7-3.2-13.1-4.8-0.1 0-0.2 0-0.2-0.1 0 0 0 0 0 0z"></path>
</symbol>

<symbol id="photoshop" viewBox="0 0 32 32">
<title>photoshop</title>
<path d="M16 27.4c-3.9 0-7.8 0-11.6 0-0.1 0-0.1 0-0.1-0.1v-22.6c0-0.1 0-0.1 0.1-0.1 1.7 0 3.3 0 5 0 6.1 0 12.2 0 18.3 0 0.1 0 0.1 0 0.1 0.1v22.6c0 0.1 0 0.1-0.1 0.1-3.9 0-7.8 0-11.7 0zM9.4 15.1v0 5.7c0 0 0 0.1 0 0.1s0 0.1 0.1 0.1c0 0 0.1 0 0.1 0 0.5 0 1 0 1.5 0 0 0 0.1 0 0.1 0 0.1 0 0.1 0 0.1-0.1 0 0 0-0.1 0-0.1 0-0.7 0-1.3 0-2s0-1.3 0-2c0-0.1 0-0.1 0.1-0.1s0.2 0 0.3 0c0.5 0 0.9 0 1.4-0.1s1-0.2 1.5-0.4c0.9-0.4 1.5-1.1 1.8-2.1 0.2-0.8 0.2-1.6 0.1-2.3-0.3-1.1-0.9-1.9-2-2.3-0.6-0.2-1.2-0.3-1.8-0.3-0.8 0-1.6 0-2.4 0-0.2 0-0.4 0-0.6 0s-0.2 0.1-0.2 0.2v5.7zM17.5 19.7v0c0 0.3 0 0.5 0 0.8 0 0.1 0 0.1 0.1 0.2 0.2 0.1 0.4 0.2 0.6 0.2 0.4 0.1 0.9 0.2 1.3 0.2 0.5 0 1.1 0 1.6-0.2s1-0.5 1.3-1c0.3-0.5 0.4-1 0.4-1.6s-0.2-1.1-0.7-1.6c-0.3-0.3-0.6-0.5-1-0.7-0.3-0.2-0.6-0.3-0.9-0.5-0.3-0.1-0.5-0.3-0.7-0.5-0.4-0.4-0.3-0.9 0.2-1.2 0.2-0.1 0.5-0.1 0.7-0.1 0.6 0 1.3 0.1 1.8 0.4 0.1 0.1 0.2 0 0.2-0.1 0-0.2 0-0.4 0-0.6v-0.9c0-0.1 0-0.2-0.2-0.2-0.1 0-0.2-0.1-0.3-0.1-0.6-0.2-1.2-0.2-1.8-0.2-0.5 0-0.9 0.1-1.3 0.3-0.5 0.3-0.9 0.6-1.1 1.2-0.2 0.4-0.2 0.8-0.2 1.3 0 0.6 0.3 1.1 0.7 1.5 0.3 0.3 0.7 0.6 1.1 0.8 0.3 0.2 0.6 0.3 0.9 0.5 0.2 0.1 0.5 0.3 0.6 0.5 0.3 0.4 0.2 1-0.3 1.2-0.2 0.1-0.4 0.1-0.6 0.1-0.5 0-1-0.1-1.5-0.2-0.3-0.1-0.5-0.2-0.8-0.4-0.1 0-0.1 0-0.1 0.1 0 0 0 0 0 0.1v0.7z"></path>
<path d="M11.3 13c0-0.7 0-1.3 0-2 0-0.1 0-0.1 0.1-0.1 0.4 0 0.7 0 1.1 0s0.8 0.1 1.1 0.2c0.5 0.2 0.8 0.6 1 1.2 0.1 0.5 0.1 1 0 1.5-0.2 0.6-0.6 1-1.1 1.2-0.5 0-0.9 0-1.3 0-0.3 0-0.6 0-0.9 0-0.1 0-0.1 0-0.1-0.1v-1.9z"></path>
</symbol>

<symbol id="premiere" viewBox="0 0 32 32">
<title>premiere</title>
<path d="M4.9 26.7v-21.4c0.2-0.1 21.5-0.1 22 0 0.1 0.2 0.1 21.1 0 21.5-0.1 0-21.5 0-22-0.1zM12 20.8c0-1.3 0-2.6 0-3.9 0.2-0.1 0.4 0 0.6 0 0.6 0 1.2 0 1.7-0.2 1.1-0.3 2-1 2.3-2.2 0.2-0.6 0.2-1.3 0.1-2-0.2-0.7-0.5-1.3-1-1.8-0.7-0.5-1.6-0.7-2.5-0.7s-1.7 0-2.6 0c-0.1 0-0.3 0-0.4 0.1-0.1 0.4 0 10.5 0 10.8 0.6-0.1 1.2-0.1 1.8-0.1zM19.9 20.8c0.1-0.2 0.1-0.3 0.1-0.4 0-1.9 0-3.7 0-5.5 0-0.3 0-0.4 0.3-0.4 0.4-0.1 0.9-0.1 1.3-0.1 0.1 0 0.2 0 0.3-0.1v-1.5c-0.1-0.1-0.2-0.1-0.2-0.1-1.1 0-2.2 0.2-3.3 0.6-0.2 0.1-0.2 0.2-0.2 0.3 0.1 0.5 0 1 0 1.5 0 1.8 0 3.5 0 5.3 0 0.1 0 0.3 0.1 0.4 0.6 0 1.1 0 1.6 0z"></path>
<path d="M12 15.3v-3.6c0-0.1 0.1-0.1 0.1-0.1 0.6-0.1 1.2-0.1 1.8 0.1 0.5 0.2 0.9 0.6 1 1.1s0.1 0.9-0.1 1.4c-0.1 0.4-0.4 0.7-0.8 0.8-0.4 0.3-1.5 0.4-2 0.3z"></path>
</symbol>

<symbol id="solidworks" viewBox="0 0 32 32">
<title>solidworks</title>
<path d="M8.7 16.9c-0.4 0-1 0-1.5 0-0.1 0-0.3 0-0.4-0.1-0.1 0-0.2-0.1-0.2-0.2s0.1-0.2 0.2-0.3c0-0.1 0.2-0.2 0.4-0.3 1.5-0.5 3.1-0.6 4.6-0.6 1.3 0 2.7 0.2 3.9 0.6 0.3 0.1 0.6 0.3 0.9 0.5 0.6 0.4 0.8 1 0.7 1.7-0.1 1-0.6 1.9-1.1 2.7-0.9 1.4-2.1 2.5-3.5 3.5-2.5 1.7-5.3 3-8.3 3.7-0.2 0.1-0.4 0.1-0.7 0.1-0.1 0-0.2 0-0.3-0.1s0-0.2 0-0.3c0.6-0.8 1-1.6 1.4-2.4 1.1-1.9 2.2-3.9 3.4-5.7 0.3-0.4 0.6-0.8 0.9-1.1 0.1-0.1 0.1-0.1 0.2-0.2 0.2-0.1 0.3-0.3 0.6-0.1 0.2 0.1 0.2 0.3 0.1 0.6-0.3 0.6-0.6 1.1-0.9 1.6-0.8 1.4-1.6 2.8-2.3 4.2-0.1 0.2-0.2 0.4-0.2 0.6 0 0.3 0.1 0.4 0.4 0.4 0.2 0 0.4 0 0.6-0.1 2.2-1 4.3-2.3 5.9-4.2 0.6-0.7 1-1.5 1.3-2.3 0.3-0.9 0-1.5-0.9-1.9-0.9-0.3-1.8-0.4-2.7-0.5-0.8 0.2-1.6 0.2-2.5 0.2z"></path>
<path d="M18.3 24.1c1.8-0.1 3.4-0.1 5.1-0.4 0.2 0 0.3-0.1 0.5-0.1 0.5-0.2 0.7-0.6 0.5-1.1-0.2-0.6-0.6-1-1-1.5-0.9-1.1-1.8-2.2-2.7-3.3-0.5-0.6-1-1.2-1.3-1.9-0.1-0.2-0.2-0.5-0.2-0.7-0.1-0.7 0-1.3 0.6-1.7 0.7-0.6 1.5-0.9 2.4-1 1.8-0.3 3.7-0.1 5.5 0.2 0.3 0.1 0.6 0.2 0.9 0.4 0.1 0.1 0.2 0.1 0.1 0.3 0 0.1-0.1 0.2-0.3 0.2-0.2 0.1-0.5 0.1-0.7 0.1-1.4 0-2.8 0-4.2 0.2-0.5 0.1-1 0.1-1.4 0.3-0.6 0.2-0.7 0.6-0.3 1.2 0.9 1.2 1.8 2.3 2.7 3.4 0.6 0.8 1.3 1.6 1.8 2.5 0.3 0.4 0.5 0.9 0.6 1.4 0.1 0.7-0.1 1.2-0.5 1.7-0.6 0.5-1.3 0.8-2 1-1.2 0.3-2.4 0.3-3.6 0.3-1.3 0-2.6-0.2-3.9-0.4-0.4-0.1-0.8-0.2-1.1-0.3-0.1-0.1-0.3-0.1-0.3-0.3s0.2-0.2 0.4-0.2c0.6-0.1 1.1 0 1.7-0.1 0.1-0.2 0.4-0.2 0.7-0.2z"></path>
<path d="M13.8 5.2c-0.4 0-0.8 0-1.1 0-0.1 0-0.3 0-0.4 0s-0.2-0.1-0.3-0.2c0-0.1 0.1-0.2 0.2-0.3 0.2-0.1 0.5-0.2 0.7-0.3 2.4-0.6 4.8-0.7 7.1 0 0.3 0.1 0.6 0.2 0.9 0.4 0.8 0.5 1.1 1.2 0.9 2.1-0.2 1-0.8 1.8-1.4 2.6-1.2 1.5-2.8 2.5-4.5 3.4-0.8 0.4-1.7 0.8-2.5 1.2-0.1 0-0.1 0-0.2 0.1-0.1 0-0.2 0.1-0.3 0s0.1-0.2 0.2-0.2c1.6-1.2 3.1-2.4 4.5-3.9 0.6-0.7 1.2-1.4 1.7-2.3 0.1-0.2 0.2-0.4 0.2-0.6 0.1-0.5 0-0.9-0.5-1.2-0.5-0.2-1-0.3-1.5-0.4-1.2-0.3-2.4-0.4-3.7-0.4z"></path>
</symbol>

<symbol id="windows" viewBox="0 0 32 32">
<title>windows</title>
<path d="M28.2 28.6c-0.9-0.1-1.8-0.3-2.7-0.4-1.8-0.3-3.7-0.5-5.5-0.8-1.5-0.2-3.1-0.4-4.6-0.6-0.2 0-0.3-0.1-0.3-0.3 0-3.1 0-6.2 0-9.3 0-0.2 0.1-0.3 0.3-0.3 4.3 0 8.5 0 12.8 0 0.2 0 0.3 0 0.3 0.3 0 3.8 0 7.5 0 11.3 0 0.1 0 0.1 0 0.2h-0.3z"></path>
<path d="M3.4 16.8c0.1 0 0.2 0 0.3 0 3.1 0 6.3 0 9.4 0 0.4 0 0.4 0 0.4 0.4v9c0 0.4 0 0.4-0.4 0.3-2.2-0.3-4.4-0.6-6.6-0.9-1-0.1-2-0.3-3.1-0.4v-8.4z"></path>
<path d="M3.4 7c0.5-0.1 0.9-0.2 1.4-0.2 1.8-0.2 3.5-0.5 5.3-0.7 1-0.1 2.1-0.3 3.1-0.4 0.2 0 0.3 0.1 0.3 0.3 0 2 0 4 0 5.9 0 1 0 2 0 3.1 0 0.2-0.1 0.3-0.3 0.3-3.2 0-6.4 0-9.6 0-0.1 0-0.1 0-0.2 0v-8.3z"></path>
<path d="M21.8 15.2c-2.1 0-4.2 0-6.3 0-0.4 0-0.4 0-0.4-0.4 0-3 0-6.1 0-9.1 0-0.3 0.1-0.4 0.4-0.4 1.9-0.3 3.7-0.5 5.6-0.8 2-0.3 4-0.6 5.9-0.9 0.4-0.1 0.8-0.1 1.2-0.2 0.3 0 0.3 0 0.3 0.3 0 1.7 0 3.5 0 5.2v5.9c0 0.4 0 0.4-0.4 0.4-2 0-4.1 0-6.3 0z"></path>
</symbol>

</defs>
</svg>